#!OML:ASF F:\VICON\USERDATA\INSTALL\rory3\rory3.ASF
:FULLY-SPECIFIED
:DEGREES
2260
root -0.247717 16.6709 -0.420183 -8.83988 48.7035 -1.1373
lowerback -0.700405 5.34701 3.4012
upperback 2.0053 7.03146 5.18427
thorax 2.21231 3.55531 3.62777
lowerneck -9.14166 -11.6149 -17.2551
upperneck 29.7883 -17.5488 15.3883
head 14.9481 -7.70859 6.30577
rclavicle 6.12257e-014 1.59028e-015
rhumerus 46.0121 2.7599 -32.1764
rradius 66.1874
rwrist 28.1315
rhand 12.9524 20.9018
rfingers 7.12502
rthumb 37.921 -4.91885
lclavicle 6.12257e-014 1.59028e-015
lhumerus 47.5392 0.445213 23.9256
lradius 72.4282
lwrist 6.02054
lhand 12.1874 25.1492
lfingers 7.12502
lthumb 37.1979 51.1623
rfemur 4.52671 -17.1407 19.4653
rtibia 31.8588
rfoot -28.665 -28.0835
rtoes -5.17749
lfemur -14.6107 -26.8851 -18.3953
ltibia 36.3432
lfoot -10.3713 -28.7221
ltoes 4.09279
2261
root -0.248619 16.6808 -0.411919 -9.05043 48.3343 -1.43793
lowerback -0.709771 5.37913 3.6226
upperback 1.87932 7.07362 4.82166
thorax 2.1583 3.57814 3.12914
lowerneck -8.76896 -11.5736 -16.6603
upperneck 29.6169 -17.7347 15.6791
head 14.7924 -7.71154 6.30519
rclavicle -7.45443e-014 -9.54166e-015
rhumerus 46.0162 2.02422 -32.4174
rradius 66.6709
rwrist 28.1316
rhand 12.8036 20.8247
rfingers 7.12502
rthumb 37.7803 -5.03392
lclavicle -7.45443e-014 -9.54166e-015
lhumerus 47.887 -0.906629 24.6074
lradius 72.0884
lwrist 5.87279
lhand 11.9316 25.1002
lfingers 7.12502
lthumb 36.956 51.176
rfemur 4.51393 -16.8689 19.7639
rtibia 31.6572
rfoot -28.6027 -28.0847
rtoes -5.39597
lfemur -14.4751 -26.7552 -18.1258
ltibia 36.2727
lfoot -10.5294 -28.5539
ltoes 3.98151
2262
root -0.248849 16.6866 -0.40256 -9.06753 47.9082 -1.58306
lowerback -0.845354 5.42117 3.71616
upperback 1.79369 7.12115 4.47752
thorax 2.1996 3.60189 2.73688
lowerneck -8.55514 -11.5844 -16.1282
upperneck 29.5258 -17.9242 15.8192
head 14.6982 -7.73159 6.24376
rclavicle -8.67695e-014 3.02153e-014
rhumerus 46.181 1.30301 -32.5355
rradius 67.109
rwrist 28.2039
rhand 12.609 20.6361
rfingers 7.12502
rthumb 37.5965 -5.27176
lclavicle -8.67695e-014 3.02153e-014
lhumerus 48.1276 -2.16727 25.3194
lradius 71.7316
lwrist 5.81481
lhand 11.6091 24.8509
lfingers 7.12502
lthumb 36.6509 51.0048
rfemur 4.449 -16.6601 19.947
rtibia 31.4957
rfoot -28.535 -28.0138
rtoes -6.30833
lfemur -14.4319 -26.58 -17.9343
ltibia 36.2172
lfoot -10.6089 -28.3627
ltoes 4.03549
2263
root -0.253781 16.6929 -0.39319 -9.07771 47.4912 -1.69818
lowerback -0.94492 5.51219 3.77247
upperback 1.83838 7.23178 4.13751
thorax 2.3504 3.65824 2.37773
lowerneck -8.69003 -11.6737 -15.6259
upperneck 29.4116 -18.1934 15.9872
head 14.6981 -7.77031 6.16302
rclavicle 9.40251e-014 2.46493e-014
rhumerus 46.5433 0.194771 -32.6981
rradius 67.3832
rwrist 28.2748
rhand 12.5042 20.7011
rfingers 7.12502
rthumb 37.4974 -5.23317
lclavicle 9.40251e-014 2.46493e-014
lhumerus 48.5969 -3.25843 26.1242
lradius 71.3573
lwrist 5.9033
lhand 11.5262 24.7897
lfingers 7.12502
lthumb 36.5725 50.9635
rfemur 4.42634 -16.5421 20.1248
rtibia 31.3885
rfoot -28.4777 -27.8337
rtoes -6.95369
lfemur -14.3997 -26.4805 -17.7576
ltibia 36.1771
lfoot -10.7258 -28.1496
ltoes 4.40265
2264
root -0.260448 16.6991 -0.383824 -9.04256 47.0714 -1.72423
lowerback -1.0395 5.58595 3.67973
upperback 1.87284 7.32475 3.8533
thorax 2.46332 3.7036 2.15462
lowerneck -8.66874 -11.6982 -15.2533
upperneck 29.2671 -18.3632 16.2027
head 14.6493 -7.78551 6.15193
rclavicle -1.02871e-013 -3.81667e-014
rhumerus 46.8157 -0.875909 -32.831
rradius 67.7837
rwrist 28.2918
rhand 12.7763 21.0828
rfingers 7.12502
rthumb 37.7545 -4.78283
lclavicle -1.02871e-013 -3.81667e-014
lhumerus 48.8522 -4.42511 27.0753
lradius 71.0682
lwrist 5.76295
lhand 11.6249 24.7266
lfingers 7.12502
lthumb 36.6658 50.8767
rfemur 4.4383 -16.4126 20.222
rtibia 31.269
rfoot -28.4465 -27.5501
rtoes -6.23154
lfemur -14.3385 -26.4726 -17.6541
ltibia 36.1869
lfoot -10.9086 -27.8088
ltoes 4.38396
2265
root -0.266574 16.7014 -0.375959 -9.15884 46.674 -1.9068
lowerback -1.1127 5.50966 3.64114
upperback 1.85134 7.22085 3.63948
thorax 2.50549 3.65121 1.96064
lowerneck -8.51322 -11.5868 -14.9493
upperneck 29.2387 -18.3246 16.3657
head 14.5781 -7.72964 6.18812
rclavicle 2.94201e-014 3.26007e-014
rhumerus 47.2295 -1.4675 -32.8954
rradius 68.2989
rwrist 28.163
rhand 12.9195 20.8566
rfingers 7.12502
rthumb 37.8898 -4.97248
lclavicle 2.94201e-014 3.26007e-014
lhumerus 48.5805 -5.64748 27.9039
lradius 71.0274
lwrist 5.6423
lhand 11.6138 25.1922
lfingers 7.12502
lthumb 36.6553 51.345
rfemur 4.50941 -16.1993 20.4316
rtibia 31.0771
rfoot -28.2291 -27.4009
rtoes -5.68905
lfemur -14.2938 -26.3909 -17.4366
ltibia 36.2685
lfoot -11.1377 -27.5769
ltoes 4.03475
2266
root -0.271981 16.6999 -0.371113 -9.52425 46.2369 -2.40284
lowerback -1.22896 5.12962 3.54486
upperback 2.07301 6.69909 3.82397
thorax 2.76889 3.39125 2.20855
lowerneck -9.15702 -11.353 -15.1002
upperneck 29.4658 -17.89 16.2536
head 14.7329 -7.5417 6.2381
rclavicle 8.92543e-014 1.66979e-014
rhumerus 48.7274 -1.81646 -32.6657
rradius 68.8564
rwrist 27.9447
rhand 12.8751 20.4433
rfingers 7.12502
rthumb 37.8479 -5.39712
lclavicle 8.92543e-014 1.66979e-014
lhumerus 47.5473 -6.18076 28.6551
lradius 70.8624
lwrist 5.67842
lhand 11.2396 25.8576
lfingers 7.12502
lthumb 36.3011 52.0995
rfemur 4.64538 -16.0334 20.8643
rtibia 30.8668
rfoot -27.9203 -27.2332
rtoes -6.5505
lfemur -14.2611 -26.1689 -16.9826
ltibia 36.3869
lfoot -11.2711 -27.4679
ltoes 4.00157
2267
root -0.280966 16.6978 -0.366601 -9.786 45.7123 -2.7824
lowerback -1.26814 4.80595 3.4241
upperback 2.32041 6.25683 3.95383
thorax 3.02342 3.17006 2.40971
lowerneck -9.97577 -11.1799 -15.2619
upperneck 29.7595 -17.5236 16.1177
head 14.974 -7.37774 6.26342
rclavicle -4.87022e-014 -2.70347e-014
rhumerus 50.2168 -2.49486 -32.4755
rradius 69.2711
rwrist 27.8685
rhand 12.8248 20.6524
rfingers 7.12502
rthumb 37.8004 -5.20086
lclavicle -4.87022e-014 -2.70347e-014
lhumerus 46.7278 -6.67043 29.3556
lradius 70.4171
lwrist 5.37198
lhand 10.7835 25.9836
lfingers 7.12502
lthumb 35.8691 52.3321
rfemur 4.65168 -15.7344 21.2559
rtibia 30.7309
rfoot -27.6892 -27.1404
rtoes -7.44727
lfemur -14.2415 -25.8828 -16.5792
ltibia 36.4703
lfoot -11.3659 -27.36
ltoes 4.23099
2268
root -0.288389 16.6954 -0.359639 -9.60912 45.1976 -2.62198
lowerback -1.30761 4.70902 3.12114
upperback 2.38053 6.13253 3.78144
thorax 3.09578 3.10222 2.40033
lowerneck -10.178 -11.0858 -15.2847
upperneck 29.8729 -17.4083 16.1987
head 15.0621 -7.31479 6.32687
rclavicle 2.14687e-014 9.54166e-015
rhumerus 51.0454 -3.32778 -32.3667
rradius 69.5953
rwrist 27.7449
rhand 12.9026 21.0647
rfingers 7.12502
rthumb 37.8738 -4.76879
lclavicle 2.14687e-014 9.54166e-015
lhumerus 46.4109 -7.68561 30.2713
lradius 69.9049
lwrist 4.87772
lhand 10.7514 25.9388
lfingers 7.12502
lthumb 35.8387 52.2947
rfemur 4.54084 -15.5841 21.1728
rtibia 30.7218
rfoot -27.4299 -26.9817
rtoes -7.91291
lfemur -14.2005 -25.6755 -16.5875
ltibia 36.4908
lfoot -11.4736 -27.1081
ltoes 4.51706
